<svg width="19" height="19" viewBox="0 0 19 19" fill="none" xmlns="http://www.w3.org/2000/svg">
<path d="M9.5 0.96875C7.81268 0.96875 6.16325 1.4691 4.7603 2.40652C3.35734 3.34395 2.26387 4.67635 1.61816 6.23523C0.972446 7.79411 0.803499 9.50946 1.13268 11.1644C1.46186 12.8193 2.27438 14.3394 3.4675 15.5325C4.66062 16.7256 6.18074 17.5381 7.83564 17.8673C9.49054 18.1965 11.2059 18.0276 12.7648 17.3818C14.3237 16.7361 15.6561 15.6427 16.5935 14.2397C17.5309 12.8368 18.0313 11.1873 18.0313 9.5C18.0289 7.2381 17.1293 5.06954 15.5299 3.47013C13.9305 1.87073 11.7619 0.971139 9.5 0.96875ZM9.5 16.7188C8.07227 16.7188 6.6766 16.2954 5.48948 15.5022C4.30236 14.709 3.37712 13.5816 2.83075 12.2625C2.28438 10.9434 2.14142 9.49199 2.41996 8.09169C2.6985 6.69139 3.38602 5.40513 4.39558 4.39557C5.40514 3.38601 6.6914 2.69849 8.0917 2.41996C9.492 2.14142 10.9434 2.28437 12.2625 2.83074C13.5816 3.37711 14.709 4.30236 15.5022 5.48948C16.2954 6.67659 16.7188 8.07227 16.7188 9.5C16.7166 11.4139 15.9553 13.2487 14.602 14.602C13.2487 15.9553 11.4139 16.7166 9.5 16.7188ZM6.875 9.5C6.875 10.0509 7.04835 10.5879 7.37049 11.0349C7.69263 11.4818 8.14724 11.8161 8.66991 11.9903C9.19258 12.1645 9.75681 12.1699 10.2827 12.0056C10.8086 11.8413 11.2694 11.5158 11.6 11.075C11.7045 10.9358 11.8601 10.8438 12.0325 10.8192C12.2049 10.7947 12.3799 10.8396 12.5192 10.9442C12.6584 11.0487 12.7504 11.2043 12.7749 11.3766C12.7995 11.549 12.7545 11.7241 12.65 11.8633C12.154 12.5243 11.4627 13.0124 10.6739 13.2586C9.88513 13.5049 9.03887 13.4967 8.25499 13.2353C7.4711 12.9739 6.78932 12.4725 6.3062 11.8021C5.82309 11.1317 5.56312 10.3263 5.56312 9.5C5.56312 8.67368 5.82309 7.86829 6.3062 7.19791C6.78932 6.52753 7.4711 6.02613 8.25499 5.76472C9.03887 5.50331 9.88513 5.49514 10.6739 5.74137C11.4627 5.9876 12.154 6.47575 12.65 7.13668C12.7018 7.20562 12.7394 7.28409 12.7609 7.36759C12.7823 7.4511 12.7871 7.53801 12.7749 7.62336C12.7628 7.70871 12.734 7.79083 12.6901 7.86504C12.6462 7.93924 12.5881 8.00408 12.5192 8.05584C12.4502 8.1076 12.3718 8.14528 12.2883 8.16672C12.2047 8.18815 12.1178 8.19293 12.0325 8.18078C11.9471 8.16863 11.865 8.13979 11.7908 8.09591C11.7166 8.05202 11.6518 7.99394 11.6 7.925C11.2694 7.48425 10.8086 7.15867 10.2827 6.9944C9.75681 6.83013 9.19258 6.83548 8.66991 7.00971C8.14724 7.18393 7.69263 7.51819 7.37049 7.96514C7.04835 8.41208 6.875 8.94906 6.875 9.5Z" fill="white"/>
</svg>
