<svg width="18" height="17" viewBox="0 0 18 17" fill="none" xmlns="http://www.w3.org/2000/svg">
<path fill-rule="evenodd" clip-rule="evenodd" d="M6.67217 4.5051C6.12307 4.9165 5.82217 5.45285 5.82217 6.0096C5.82217 6.5672 6.12307 7.10355 6.67217 7.5158C7.22127 7.92805 7.99987 8.1958 8.87792 8.1958C8.99063 8.1958 9.09873 8.24057 9.17844 8.32028C9.25814 8.39998 9.30292 8.50808 9.30292 8.6208C9.30292 8.73351 9.25814 8.84161 9.17844 8.92132C9.09873 9.00102 8.99063 9.0458 8.87792 9.0458C7.83412 9.0458 6.87192 8.72875 6.16217 8.1958C5.45157 7.66285 4.97217 6.8953 4.97217 6.01045C4.97217 5.12645 5.45157 4.3572 6.16217 3.82425C6.87277 3.29215 7.83412 2.9751 8.87792 2.9751C10.5082 2.9751 11.9779 3.75625 12.5448 4.959C12.5928 5.06101 12.5984 5.17791 12.5602 5.284C12.522 5.39008 12.4433 5.47666 12.3412 5.52467C12.2392 5.57269 12.1223 5.57822 12.0162 5.54004C11.9102 5.50186 11.8236 5.42311 11.7756 5.3211C11.3871 4.4966 10.2787 3.8251 8.87792 3.8251C7.99987 3.8251 7.22127 4.09285 6.67217 4.5051Z" fill="white"/>
<path fill-rule="evenodd" clip-rule="evenodd" d="M10.8033 12.7356C11.3524 12.3242 11.6524 11.787 11.6524 11.2311C11.6524 10.6735 11.3524 10.1372 10.8024 9.72495C10.2533 9.3127 9.47472 9.04495 8.59752 9.04495C8.4848 9.04495 8.3767 9.00017 8.297 8.92047C8.21729 8.84077 8.17252 8.73266 8.17252 8.61995C8.17252 8.50723 8.21729 8.39913 8.297 8.31943C8.3767 8.23972 8.4848 8.19495 8.59752 8.19495C9.64132 8.19495 10.6035 8.512 11.3133 9.04495C12.023 9.5779 12.5024 10.3454 12.5024 11.2303C12.5024 12.1143 12.023 12.8835 11.3124 13.4156C10.6027 13.9486 9.64132 14.2656 8.59752 14.2656C6.96722 14.2656 5.49757 13.4845 4.93062 12.2817C4.8826 12.1797 4.87707 12.0628 4.91525 11.9567C4.95343 11.8507 5.03218 11.7641 5.13419 11.7161C5.2362 11.6681 5.35311 11.6625 5.45919 11.7007C5.56528 11.7389 5.65185 11.8176 5.69987 11.9196C6.08832 12.7441 7.19587 13.4156 8.59752 13.4156C9.47472 13.4156 10.2533 13.1479 10.8033 12.7356ZM8.28982 0.850098C8.40254 0.850098 8.51064 0.894874 8.59034 0.974577C8.67004 1.05428 8.71482 1.16238 8.71482 1.2751V2.9751C8.71482 3.08781 8.67004 3.19591 8.59034 3.27562C8.51064 3.35532 8.40254 3.4001 8.28982 3.4001C8.1771 3.4001 8.069 3.35532 7.9893 3.27562C7.90959 3.19591 7.86482 3.08781 7.86482 2.9751V1.2751C7.86482 1.16238 7.90959 1.05428 7.9893 0.974577C8.069 0.894874 8.1771 0.850098 8.28982 0.850098Z" fill="white"/>
<path fill-rule="evenodd" clip-rule="evenodd" d="M8.28975 13.6001C8.40246 13.6001 8.51056 13.6449 8.59027 13.7246C8.66997 13.8043 8.71475 13.9124 8.71475 14.0251V15.7251C8.71475 15.8378 8.66997 15.9459 8.59027 16.0256C8.51056 16.1053 8.40246 16.1501 8.28975 16.1501C8.17703 16.1501 8.06893 16.1053 7.98923 16.0256C7.90952 15.9459 7.86475 15.8378 7.86475 15.7251V14.0251C7.86475 13.9124 7.90952 13.8043 7.98923 13.7246C8.06893 13.6449 8.17703 13.6001 8.28975 13.6001Z" fill="white"/>
</svg>
