<svg width="26" height="26" viewBox="0 0 26 26" fill="none" xmlns="http://www.w3.org/2000/svg">
<path fill-rule="evenodd" clip-rule="evenodd" d="M9.04853 6.75752C8.22488 7.37462 7.77353 8.17915 7.77353 9.01427C7.77353 9.85067 8.22488 10.6552 9.04853 11.2736C9.87218 11.8919 11.0401 12.2936 12.3571 12.2936C12.5262 12.2936 12.6884 12.3607 12.8079 12.4803C12.9275 12.5998 12.9946 12.762 12.9946 12.9311C12.9946 13.1002 12.9275 13.2623 12.8079 13.3819C12.6884 13.5014 12.5262 13.5686 12.3571 13.5686C10.7915 13.5686 9.34815 13.093 8.28353 12.2936C7.21763 11.4941 6.49854 10.3428 6.49854 9.01555C6.49854 7.68955 7.21763 6.53567 8.28353 5.73625C9.34943 4.9381 10.7915 4.46252 12.3571 4.46252C14.8026 4.46252 17.0071 5.63425 17.8575 7.43837C17.9295 7.59139 17.9378 7.76675 17.8805 7.92587C17.8233 8.085 17.7051 8.21486 17.5521 8.28689C17.3991 8.35891 17.2238 8.3672 17.0646 8.30994C16.9055 8.25267 16.7756 8.13454 16.7036 7.98152C16.1209 6.74477 14.4583 5.73752 12.3571 5.73752C11.0401 5.73752 9.87218 6.13915 9.04853 6.75752Z" fill="white"/>
<path fill-rule="evenodd" clip-rule="evenodd" d="M15.2452 19.1033C16.0688 18.4862 16.5189 17.6805 16.5189 16.8466C16.5189 16.0102 16.0688 15.2057 15.2439 14.5873C14.4202 13.9689 13.2523 13.5673 11.9365 13.5673C11.7675 13.5673 11.6053 13.5001 11.4858 13.3806C11.3662 13.261 11.2991 13.0989 11.2991 12.9298C11.2991 12.7607 11.3662 12.5986 11.4858 12.479C11.6053 12.3595 11.7675 12.2923 11.9365 12.2923C13.5022 12.2923 14.9455 12.7679 16.0102 13.5673C17.0748 14.3667 17.7939 15.5181 17.7939 16.8453C17.7939 18.1713 17.0748 19.3252 16.0089 20.1234C14.9443 20.9228 13.5022 21.3984 11.9365 21.3984C9.4911 21.3984 7.28663 20.2266 6.43621 18.4225C6.36418 18.2695 6.35589 18.0941 6.41316 17.935C6.47043 17.7759 6.58856 17.646 6.74157 17.574C6.89459 17.502 7.06994 17.4937 7.22907 17.5509C7.3882 17.6082 7.51806 17.7263 7.59008 17.8794C8.17276 19.1161 9.83408 20.1234 11.9365 20.1234C13.2523 20.1234 14.4202 19.7217 15.2452 19.1033ZM11.475 1.27502C11.6441 1.27502 11.8062 1.34219 11.9258 1.46174C12.0453 1.5813 12.1125 1.74345 12.1125 1.91252V4.46252C12.1125 4.6316 12.0453 4.79375 11.9258 4.91331C11.8062 5.03286 11.6441 5.10002 11.475 5.10002C11.3059 5.10002 11.1438 5.03286 11.0242 4.91331C10.9047 4.79375 10.8375 4.6316 10.8375 4.46252V1.91252C10.8375 1.74345 10.9047 1.5813 11.0242 1.46174C11.1438 1.34219 11.3059 1.27502 11.475 1.27502Z" fill="white"/>
<path fill-rule="evenodd" clip-rule="evenodd" d="M11.4749 20.4C11.644 20.4 11.8061 20.4672 11.9257 20.5867C12.0452 20.7063 12.1124 20.8684 12.1124 21.0375V23.5875C12.1124 23.7566 12.0452 23.9188 11.9257 24.0383C11.8061 24.1579 11.644 24.225 11.4749 24.225C11.3058 24.225 11.1437 24.1579 11.0241 24.0383C10.9046 23.9188 10.8374 23.7566 10.8374 23.5875V21.0375C10.8374 20.8684 10.9046 20.7063 11.0241 20.5867C11.1437 20.4672 11.3058 20.4 11.4749 20.4Z" fill="white"/>
</svg>
