<svg width="8" height="14" viewBox="0 0 8 14" fill="none" xmlns="http://www.w3.org/2000/svg">
<path d="M7.375 2.5H5.125C4.71077 2.5 4.375 2.83579 4.375 3.25V5.5H7.375C7.46028 5.49811 7.5412 5.5378 7.5919 5.60643C7.6426 5.67505 7.65685 5.764 7.63 5.845L7.075 7.495C7.02385 7.64642 6.88233 7.7488 6.7225 7.75H4.375V13.375C4.375 13.5821 4.20708 13.75 4 13.75H2.125C1.91789 13.75 1.75 13.5821 1.75 13.375V7.75H0.625C0.417895 7.75 0.25 7.58208 0.25 7.375V5.875C0.25 5.66792 0.417895 5.5 0.625 5.5H1.75V3.25C1.75 1.59314 3.09317 0.25 4.75 0.25H7.375C7.58208 0.25 7.75 0.417895 7.75 0.625V2.125C7.75 2.3321 7.58208 2.5 7.375 2.5Z" fill="white"/>
</svg>
