<svg width="14" height="14" viewBox="0 0 14 14" fill="none" xmlns="http://www.w3.org/2000/svg">
<path fill-rule="evenodd" clip-rule="evenodd" d="M10 0.25H4C1.92894 0.25 0.25 1.92894 0.25 4V10C0.25 12.071 1.92894 13.75 4 13.75H10C12.071 13.75 13.75 12.071 13.75 10V4C13.75 1.92894 12.071 0.25 10 0.25ZM12.4375 10C12.4334 11.3444 11.3444 12.4334 10 12.4375H4C2.65551 12.4334 1.56662 11.3444 1.5625 10V4C1.56662 2.65551 2.65551 1.56662 4 1.5625H10C11.3444 1.56662 12.4334 2.65551 12.4375 4V10ZM10.5625 4.1875C10.9767 4.1875 11.3125 3.85171 11.3125 3.4375C11.3125 3.02329 10.9767 2.6875 10.5625 2.6875C10.1483 2.6875 9.8125 3.02329 9.8125 3.4375C9.8125 3.85171 10.1483 4.1875 10.5625 4.1875ZM7 3.625C5.13604 3.625 3.625 5.13604 3.625 7C3.625 8.86398 5.13604 10.375 7 10.375C8.86398 10.375 10.375 8.86398 10.375 7C10.377 6.10427 10.022 5.24468 9.38868 4.61131C8.7553 3.97794 7.89573 3.623 7 3.625ZM4.9375 7C4.9375 8.1391 5.8609 9.0625 7 9.0625C8.1391 9.0625 9.0625 8.1391 9.0625 7C9.0625 5.8609 8.1391 4.9375 7 4.9375C5.8609 4.9375 4.9375 5.8609 4.9375 7Z" fill="white"/>
</svg>
