<svg width="86" height="50" viewBox="0 0 86 50" fill="none" xmlns="http://www.w3.org/2000/svg">
<path d="M2.358 43.126C2.094 43.126 1.89 43.054 1.746 42.91C1.602 42.754 1.53 42.538 1.53 42.262V31.048C1.53 30.76 1.602 30.544 1.746 30.4C1.89 30.256 2.094 30.184 2.358 30.184C2.634 30.184 2.844 30.256 2.988 30.4C3.132 30.544 3.204 30.76 3.204 31.048V42.262C3.204 42.538 3.132 42.754 2.988 42.91C2.856 43.054 2.646 43.126 2.358 43.126ZM6.83494 43.126C6.58294 43.126 6.38494 43.054 6.24094 42.91C6.09694 42.766 6.02494 42.556 6.02494 42.28V34.936C6.02494 34.66 6.09694 34.456 6.24094 34.324C6.38494 34.18 6.58294 34.108 6.83494 34.108C7.08694 34.108 7.27894 34.18 7.41094 34.324C7.55494 34.456 7.62694 34.66 7.62694 34.936V36.412L7.42894 36.142C7.68094 35.458 8.08894 34.942 8.65294 34.594C9.22894 34.246 9.88294 34.072 10.6149 34.072C11.3229 34.072 11.9049 34.198 12.3609 34.45C12.8169 34.702 13.1589 35.086 13.3869 35.602C13.6149 36.118 13.7289 36.772 13.7289 37.564V42.28C13.7289 42.556 13.6569 42.766 13.5129 42.91C13.3809 43.054 13.1829 43.126 12.9189 43.126C12.6549 43.126 12.4509 43.054 12.3069 42.91C12.1629 42.766 12.0909 42.556 12.0909 42.28V37.654C12.0909 36.874 11.9409 36.304 11.6409 35.944C11.3409 35.584 10.8609 35.404 10.2009 35.404C9.43294 35.404 8.81494 35.644 8.34694 36.124C7.89094 36.592 7.66294 37.228 7.66294 38.032V42.28C7.66294 42.844 7.38694 43.126 6.83494 43.126ZM19.6737 43.162C18.9057 43.162 18.2277 42.982 17.6397 42.622C17.0637 42.25 16.6137 41.722 16.2897 41.038C15.9657 40.342 15.8037 39.532 15.8037 38.608C15.8037 37.672 15.9597 36.868 16.2717 36.196C16.5957 35.512 17.0457 34.99 17.6217 34.63C18.2097 34.258 18.8937 34.072 19.6737 34.072C20.4537 34.072 21.1257 34.27 21.6897 34.666C22.2537 35.05 22.6317 35.566 22.8237 36.214H22.6257V31.012C22.6257 30.736 22.6917 30.532 22.8237 30.4C22.9677 30.256 23.1717 30.184 23.4357 30.184C23.6997 30.184 23.9037 30.256 24.0477 30.4C24.1917 30.532 24.2637 30.736 24.2637 31.012V42.28C24.2637 42.556 24.1917 42.766 24.0477 42.91C23.9037 43.054 23.6997 43.126 23.4357 43.126C23.1837 43.126 22.9857 43.054 22.8417 42.91C22.6977 42.766 22.6257 42.556 22.6257 42.28V40.642L22.8237 40.966C22.6437 41.638 22.2657 42.172 21.6897 42.568C21.1257 42.964 20.4537 43.162 19.6737 43.162ZM20.0517 41.866C20.5797 41.866 21.0357 41.74 21.4197 41.488C21.8157 41.236 22.1157 40.87 22.3197 40.39C22.5357 39.91 22.6437 39.316 22.6437 38.608C22.6437 37.552 22.4097 36.748 21.9417 36.196C21.4737 35.644 20.8437 35.368 20.0517 35.368C19.5357 35.368 19.0797 35.494 18.6837 35.746C18.2997 35.986 17.9997 36.346 17.7837 36.826C17.5677 37.306 17.4597 37.9 17.4597 38.608C17.4597 39.664 17.6937 40.474 18.1617 41.038C18.6417 41.59 19.2717 41.866 20.0517 41.866ZM30.6162 43.162C29.7522 43.162 29.0022 42.976 28.3662 42.604C27.7302 42.232 27.2382 41.704 26.8902 41.02C26.5422 40.336 26.3682 39.532 26.3682 38.608C26.3682 37.912 26.4642 37.288 26.6562 36.736C26.8602 36.172 27.1482 35.692 27.5202 35.296C27.8922 34.9 28.3362 34.6 28.8522 34.396C29.3802 34.18 29.9682 34.072 30.6162 34.072C31.4802 34.072 32.2302 34.258 32.8662 34.63C33.5022 35.002 33.9942 35.53 34.3422 36.214C34.6902 36.886 34.8642 37.684 34.8642 38.608C34.8642 39.304 34.7622 39.934 34.5582 40.498C34.3662 41.062 34.0842 41.542 33.7122 41.938C33.3402 42.334 32.8902 42.64 32.3622 42.856C31.8462 43.06 31.2642 43.162 30.6162 43.162ZM30.6162 41.866C31.1442 41.866 31.6002 41.74 31.9842 41.488C32.3802 41.236 32.6802 40.87 32.8842 40.39C33.1002 39.91 33.2082 39.316 33.2082 38.608C33.2082 37.552 32.9742 36.748 32.5062 36.196C32.0382 35.644 31.4082 35.368 30.6162 35.368C30.1002 35.368 29.6442 35.494 29.2482 35.746C28.8642 35.986 28.5642 36.346 28.3482 36.826C28.1322 37.306 28.0242 37.9 28.0242 38.608C28.0242 39.664 28.2582 40.474 28.7262 41.038C29.2062 41.59 29.8362 41.866 30.6162 41.866Z" fill="white"/>
<path d="M41.1204 43.126C40.8444 43.126 40.6344 43.054 40.4904 42.91C40.3464 42.754 40.2744 42.538 40.2744 42.262V31.732H36.3324C36.1044 31.732 35.9244 31.672 35.7924 31.552C35.6604 31.42 35.5944 31.24 35.5944 31.012C35.5944 30.784 35.6604 30.61 35.7924 30.49C35.9244 30.37 36.1044 30.31 36.3324 30.31H45.8904C46.1304 30.31 46.3104 30.37 46.4304 30.49C46.5624 30.61 46.6284 30.784 46.6284 31.012C46.6284 31.24 46.5624 31.42 46.4304 31.552C46.3104 31.672 46.1304 31.732 45.8904 31.732H41.9484V42.262C41.9484 42.538 41.8764 42.754 41.7324 42.91C41.6004 43.054 41.3964 43.126 41.1204 43.126ZM47.3534 43.126C47.0774 43.126 46.8674 43.054 46.7234 42.91C46.5794 42.766 46.5074 42.556 46.5074 42.28V34.936C46.5074 34.66 46.5794 34.456 46.7234 34.324C46.8674 34.18 47.0654 34.108 47.3174 34.108C47.5694 34.108 47.7614 34.18 47.8934 34.324C48.0374 34.456 48.1094 34.66 48.1094 34.936V36.322H47.9294C48.1214 35.602 48.4814 35.056 49.0094 34.684C49.5374 34.312 50.2034 34.102 51.0074 34.054C51.1994 34.042 51.3554 34.09 51.4754 34.198C51.5954 34.294 51.6614 34.462 51.6734 34.702C51.6854 34.93 51.6314 35.116 51.5114 35.26C51.3914 35.392 51.2054 35.47 50.9534 35.494L50.6294 35.512C49.8374 35.596 49.2254 35.854 48.7934 36.286C48.3734 36.718 48.1634 37.312 48.1634 38.068V42.28C48.1634 42.556 48.0914 42.766 47.9474 42.91C47.8154 43.054 47.6174 43.126 47.3534 43.126ZM55.7837 43.162C55.1837 43.162 54.6377 43.042 54.1457 42.802C53.6657 42.562 53.2877 42.238 53.0117 41.83C52.7477 41.422 52.6157 40.966 52.6157 40.462C52.6157 39.814 52.7777 39.304 53.1017 38.932C53.4257 38.56 53.9717 38.296 54.7397 38.14C55.5077 37.972 56.5397 37.888 57.8357 37.888H58.6817V38.932H57.8717C56.9477 38.932 56.2157 38.974 55.6757 39.058C55.1477 39.142 54.7757 39.292 54.5597 39.508C54.3437 39.712 54.2357 40 54.2357 40.372C54.2357 40.84 54.3977 41.224 54.7217 41.524C55.0577 41.824 55.5137 41.974 56.0897 41.974C56.5457 41.974 56.9477 41.866 57.2957 41.65C57.6437 41.422 57.9197 41.122 58.1237 40.75C58.3277 40.366 58.4297 39.928 58.4297 39.436V37.366C58.4297 36.658 58.2857 36.148 57.9977 35.836C57.7097 35.512 57.2237 35.35 56.5397 35.35C56.1437 35.35 55.7357 35.404 55.3157 35.512C54.8957 35.62 54.4577 35.788 54.0017 36.016C53.8217 36.1 53.6657 36.13 53.5337 36.106C53.4017 36.07 53.2937 35.998 53.2097 35.89C53.1377 35.77 53.0957 35.644 53.0837 35.512C53.0837 35.368 53.1137 35.23 53.1737 35.098C53.2457 34.966 53.3657 34.87 53.5337 34.81C54.0617 34.546 54.5837 34.36 55.0997 34.252C55.6277 34.132 56.1197 34.072 56.5757 34.072C57.3557 34.072 57.9977 34.198 58.5017 34.45C59.0057 34.69 59.3837 35.068 59.6357 35.584C59.8877 36.088 60.0137 36.736 60.0137 37.528V42.28C60.0137 42.556 59.9477 42.766 59.8157 42.91C59.6837 43.054 59.4917 43.126 59.2397 43.126C58.9997 43.126 58.8077 43.054 58.6637 42.91C58.5317 42.766 58.4657 42.556 58.4657 42.28V41.002H58.6277C58.5317 41.446 58.3517 41.83 58.0877 42.154C57.8237 42.478 57.4937 42.73 57.0977 42.91C56.7137 43.078 56.2757 43.162 55.7837 43.162ZM65.8335 43.126C65.6055 43.126 65.4075 43.066 65.2395 42.946C65.0715 42.826 64.9275 42.634 64.8075 42.37L61.7475 35.242C61.6635 35.038 61.6335 34.852 61.6575 34.684C61.6815 34.516 61.7595 34.378 61.8915 34.27C62.0355 34.162 62.2275 34.108 62.4675 34.108C62.6715 34.108 62.8335 34.156 62.9535 34.252C63.0735 34.348 63.1875 34.516 63.2955 34.756L66.1215 41.722H65.6175L68.5155 34.756C68.6115 34.516 68.7195 34.348 68.8395 34.252C68.9715 34.156 69.1515 34.108 69.3795 34.108C69.5835 34.108 69.7395 34.162 69.8475 34.27C69.9675 34.378 70.0395 34.516 70.0635 34.684C70.0875 34.852 70.0515 35.032 69.9555 35.224L66.8775 42.37C66.7695 42.634 66.6255 42.826 66.4455 42.946C66.2775 43.066 66.0735 43.126 65.8335 43.126ZM75.7292 43.162C74.7812 43.162 73.9652 42.982 73.2812 42.622C72.6092 42.25 72.0872 41.728 71.7152 41.056C71.3432 40.372 71.1572 39.568 71.1572 38.644C71.1572 37.732 71.3372 36.934 71.6972 36.25C72.0692 35.566 72.5732 35.032 73.2092 34.648C73.8572 34.264 74.5952 34.072 75.4232 34.072C76.0112 34.072 76.5392 34.174 77.0072 34.378C77.4872 34.57 77.8952 34.852 78.2312 35.224C78.5672 35.596 78.8192 36.052 78.9872 36.592C79.1672 37.12 79.2572 37.72 79.2572 38.392C79.2572 38.584 79.1972 38.734 79.0772 38.842C78.9692 38.938 78.8072 38.986 78.5912 38.986H72.4352V37.942H78.1772L77.8712 38.194C77.8712 37.57 77.7752 37.042 77.5832 36.61C77.4032 36.166 77.1332 35.83 76.7732 35.602C76.4252 35.374 75.9872 35.26 75.4592 35.26C74.8832 35.26 74.3912 35.398 73.9832 35.674C73.5752 35.938 73.2632 36.316 73.0472 36.808C72.8312 37.288 72.7232 37.846 72.7232 38.482V38.59C72.7232 39.67 72.9812 40.486 73.4972 41.038C74.0132 41.59 74.7572 41.866 75.7292 41.866C76.1132 41.866 76.5032 41.818 76.8992 41.722C77.3072 41.626 77.6972 41.452 78.0692 41.2C78.2492 41.092 78.4112 41.044 78.5552 41.056C78.7112 41.056 78.8372 41.104 78.9332 41.2C79.0292 41.284 79.0892 41.392 79.1132 41.524C79.1372 41.644 79.1192 41.776 79.0592 41.92C78.9992 42.064 78.8852 42.19 78.7172 42.298C78.3212 42.574 77.8472 42.79 77.2952 42.946C76.7552 43.09 76.2332 43.162 75.7292 43.162ZM84.0485 43.162C83.1485 43.162 82.4645 42.898 81.9965 42.37C81.5285 41.83 81.2945 41.056 81.2945 40.048V31.012C81.2945 30.736 81.3665 30.532 81.5105 30.4C81.6545 30.256 81.8525 30.184 82.1045 30.184C82.3685 30.184 82.5725 30.256 82.7165 30.4C82.8605 30.532 82.9325 30.736 82.9325 31.012V39.922C82.9325 40.546 83.0585 41.014 83.3105 41.326C83.5745 41.626 83.9465 41.776 84.4265 41.776C84.5345 41.776 84.6305 41.776 84.7145 41.776C84.7985 41.764 84.8825 41.752 84.9665 41.74C85.0985 41.728 85.1945 41.764 85.2545 41.848C85.3145 41.932 85.3445 42.1 85.3445 42.352C85.3445 42.58 85.2905 42.76 85.1825 42.892C85.0865 43.012 84.9245 43.09 84.6965 43.126C84.5885 43.138 84.4805 43.144 84.3725 43.144C84.2645 43.156 84.1565 43.162 84.0485 43.162Z" fill="#534A2F"/>
<path d="M65.8014 6.15839C65.4778 5.17114 64.7815 4.35488 63.8655 3.88917C62.9495 3.42347 61.889 3.34644 60.9171 3.67505L50.1865 7.31111L30.9948 0L26.1969 2.43704L40.5907 12.1852L30.9948 17.0593L21.399 12.1852L19 14.6222L28.5959 24.3704L63.4936 11.0763C64.4299 10.7192 65.1935 10.0073 65.6239 9.0902C66.0542 8.17308 66.1179 7.12218 65.8014 6.15839Z" fill="white"/>
</svg>
