<svg width="26" height="20" viewBox="0 0 26 20" fill="none" xmlns="http://www.w3.org/2000/svg">
<path d="M20.8223 5.27998C20.6654 7.41514 19.0491 9.05996 17.2867 9.05996C15.5242 9.05996 13.9053 7.41567 13.751 5.27998C13.5903 3.05872 15.1637 1.5 17.2867 1.5C19.4097 1.5 20.983 3.09914 20.8223 5.27998Z" stroke="white" stroke-width="1.5" stroke-linecap="round" stroke-linejoin="round"/>
<path d="M17.2862 12.4202C13.795 12.4202 10.4377 14.1196 9.5967 17.4292C9.48527 17.867 9.76544 18.3001 10.2245 18.3001H24.3483C24.8074 18.3001 25.086 17.867 24.9762 17.4292C24.1351 14.0666 20.7779 12.4202 17.2862 12.4202Z" stroke="white" stroke-width="1.5" stroke-miterlimit="10"/>
<path d="M10.0003 6.22177C9.87497 7.92696 8.56892 9.2699 7.1611 9.2699C5.75327 9.2699 4.44508 7.92748 4.32187 6.22177C4.19384 4.4478 5.46506 3.17993 7.1611 3.17993C8.85713 3.17993 10.1284 4.48035 10.0003 6.22177Z" stroke="white" stroke-width="1.5" stroke-linecap="round" stroke-linejoin="round"/>
<path d="M10.3218 12.5246C9.35481 12.0904 8.28983 11.9235 7.16111 11.9235C4.37545 11.9235 1.69158 13.2806 1.01927 15.9239C0.930883 16.2736 1.15481 16.6196 1.52123 16.6196H7.5361" stroke="white" stroke-width="1.5" stroke-miterlimit="10" stroke-linecap="round"/>
</svg>
