<svg width="19" height="14" viewBox="0 0 19 14" fill="none" xmlns="http://www.w3.org/2000/svg">
<path d="M14.6799 3.6775C14.5688 5.18992 13.4239 6.355 12.1755 6.355C10.9271 6.355 9.78037 5.19029 9.67108 3.6775C9.55725 2.1041 10.6717 1 12.1755 1C13.6793 1 14.7938 2.13273 14.6799 3.6775Z" stroke="white" stroke-linecap="round" stroke-linejoin="round"/>
<path d="M12.1755 8.73535C9.70255 8.73535 7.32448 9.93911 6.72873 12.2834C6.6498 12.5936 6.84826 12.9004 7.17346 12.9004H17.1779C17.5031 12.9004 17.7004 12.5936 17.6226 12.2834C17.0269 9.90155 14.6488 8.73535 12.1755 8.73535Z" stroke="white" stroke-miterlimit="10"/>
<path d="M7.01489 4.34459C6.92609 5.55244 6.00097 6.50369 5.00375 6.50369C4.00653 6.50369 3.0799 5.55281 2.99262 4.34459C2.90193 3.08802 3.80239 2.18994 5.00375 2.18994C6.20512 2.18994 7.10558 3.11108 7.01489 4.34459Z" stroke="white" stroke-linecap="round" stroke-linejoin="round"/>
<path d="M7.24261 8.8091C6.55769 8.50156 5.80332 8.3833 5.0038 8.3833C3.03061 8.3833 1.12952 9.3446 0.653301 11.217C0.59069 11.4647 0.749304 11.7097 1.00885 11.7097H5.26942" stroke="white" stroke-miterlimit="10" stroke-linecap="round"/>
</svg>
