<svg width="15" height="16" viewBox="0 0 15 16" fill="none" xmlns="http://www.w3.org/2000/svg">
<path d="M10.764 0.709876C10.2654 0.766126 9.8687 1.17113 9.8007 1.66613L8.92803 5.34487C8.80337 5.86237 9.06403 6.40238 9.55137 6.62738L10.22 6.93113C9.72137 8.22487 8.62203 9.11362 8.62203 9.11362C8.62203 9.11362 7.71537 10.2049 6.42337 10.6999L6.11737 10.0361C6.00729 9.80061 5.81839 9.61024 5.58282 9.49743C5.34726 9.38461 5.07958 9.35632 4.82537 9.41737L1.11937 10.2836C0.620699 10.3511 0.212699 10.7449 0.156033 11.2399C0.0426994 12.1624 0.0766994 13.6024 1.11937 14.3674C1.11937 14.3674 5.8227 17.6524 11.5347 11.9824C17.2467 6.31238 13.9374 1.64363 13.9374 1.64363C13.1554 0.608626 11.7047 0.586126 10.7867 0.687376L10.764 0.709876Z" fill="white"/>
</svg>
