<svg width="19" height="19" viewBox="0 0 19 19" fill="none" xmlns="http://www.w3.org/2000/svg">
<path d="M17.5417 19L10.9792 12.4375C10.4583 12.8542 9.85937 13.184 9.18229 13.4271C8.50521 13.6701 7.78472 13.7917 7.02083 13.7917C5.12847 13.7917 3.52708 13.1361 2.21667 11.825C0.90625 10.5139 0.250694 8.9125 0.25 7.02083C0.25 5.12847 0.905556 3.52708 2.21667 2.21667C3.52778 0.90625 5.12917 0.250694 7.02083 0.25C8.91319 0.25 10.5146 0.905556 11.825 2.21667C13.1354 3.52778 13.791 5.12917 13.7917 7.02083C13.7917 7.78472 13.6701 8.50521 13.4271 9.18229C13.184 9.85937 12.8542 10.4583 12.4375 10.9792L19 17.5417L17.5417 19ZM7.02083 11.7083C8.32292 11.7083 9.42986 11.2524 10.3417 10.3406C11.2535 9.42882 11.709 8.32222 11.7083 7.02083C11.7083 5.71875 11.2524 4.6118 10.3406 3.7C9.42882 2.78819 8.32222 2.33264 7.02083 2.33333C5.71875 2.33333 4.6118 2.78924 3.7 3.70104C2.78819 4.61285 2.33264 5.71944 2.33333 7.02083C2.33333 8.32292 2.78924 9.42986 3.70104 10.3417C4.61285 11.2535 5.71944 11.709 7.02083 11.7083Z" fill="white"/>
</svg>
