<svg width="14" height="12" viewBox="0 0 14 12" fill="none" xmlns="http://www.w3.org/2000/svg">
<path d="M13.7295 2.03805C13.3812 2.50269 12.9602 2.908 12.4826 3.23832C12.4826 3.35969 12.4826 3.48107 12.4826 3.60919C12.4865 5.81333 11.6061 7.92683 10.0388 9.47588C8.47143 11.0249 6.34832 11.8799 4.14545 11.8492C2.8719 11.8535 1.61466 11.5627 0.472225 10.9996C0.41062 10.9727 0.370893 10.9118 0.371125 10.8445V10.7703C0.371125 10.6735 0.449583 10.595 0.546363 10.595C1.79823 10.5537 3.00542 10.1197 3.99717 9.3543C2.86406 9.33143 1.84455 8.66018 1.37536 7.62803C1.35167 7.5717 1.35904 7.50698 1.39484 7.4574C1.43063 7.40783 1.48966 7.38053 1.5506 7.38533C1.89498 7.4199 2.24279 7.38788 2.57506 7.2909C1.3242 7.03125 0.384318 5.9928 0.249805 4.72178C0.245027 4.6608 0.27235 4.60178 0.32191 4.56593C0.371463 4.53015 0.43609 4.52273 0.492445 4.5465C0.828115 4.69463 1.19048 4.77263 1.55734 4.7757C0.46129 4.05635 -0.0121324 2.68804 0.404823 1.44467C0.447865 1.32385 0.551268 1.23459 0.677035 1.20971C0.802795 1.18481 0.93238 1.22796 1.01815 1.32329C2.4972 2.89744 4.52944 3.83547 6.68635 3.93959C6.63115 3.71914 6.604 3.49257 6.6055 3.26529C6.62568 2.07354 7.36307 1.01191 8.47248 0.577404C9.5818 0.142906 10.8436 0.421524 11.6672 1.28283C12.2285 1.17589 12.7712 0.987339 13.278 0.723159C13.3151 0.699984 13.3622 0.699984 13.3993 0.723159C13.4225 0.760299 13.4225 0.807391 13.3993 0.844531C13.1538 1.40664 12.7392 1.87809 12.2131 2.19314C12.6737 2.13972 13.1263 2.03105 13.5611 1.86948C13.5977 1.84457 13.6458 1.84457 13.6824 1.86948C13.713 1.88351 13.736 1.91033 13.7451 1.94282C13.7541 1.9753 13.7484 2.01014 13.7295 2.03805Z" fill="white"/>
</svg>
